<mxfile host="app.diagrams.net" modified="2020-11-06T16:43:24.901Z" agent="5.0 (Macintosh; Intel Mac OS X 10_15_6) AppleWebKit/537.36 (KHTML, like Gecko) Chrome/86.0.4240.183 Safari/537.36" etag="9AlZIswztZBzvhTPd9cE" version="13.8.9-1" type="github" pages="4">
  <diagram id="RPJwg40vxxD-TUFhLjkQ" name="Page-1">
    <mxGraphModel dx="1864" dy="543" grid="1" gridSize="10" guides="1" tooltips="1" connect="1" arrows="1" fold="1" page="1" pageScale="1" pageWidth="850" pageHeight="1100" math="0" shadow="0">
      <root>
        <mxCell id="0" />
        <mxCell id="1" parent="0" />
        <mxCell id="zctFz-qKtqswH_JM95j2-1" value="Post office" style="shape=umlActor;verticalLabelPosition=bottom;verticalAlign=top;html=1;outlineConnect=0;" vertex="1" parent="1">
          <mxGeometry x="330" y="220" width="30" height="60" as="geometry" />
        </mxCell>
        <mxCell id="zctFz-qKtqswH_JM95j2-2" value="Sender" style="shape=umlActor;verticalLabelPosition=bottom;verticalAlign=top;html=1;outlineConnect=0;" vertex="1" parent="1">
          <mxGeometry x="70" y="220" width="30" height="60" as="geometry" />
        </mxCell>
        <mxCell id="zctFz-qKtqswH_JM95j2-3" value="Recipient" style="shape=umlActor;verticalLabelPosition=bottom;verticalAlign=top;html=1;outlineConnect=0;" vertex="1" parent="1">
          <mxGeometry x="580" y="220" width="30" height="60" as="geometry" />
        </mxCell>
        <mxCell id="zctFz-qKtqswH_JM95j2-4" value="Address" style="ellipse;shape=cloud;whiteSpace=wrap;html=1;" vertex="1" parent="1">
          <mxGeometry x="100" y="130" width="100" height="70" as="geometry" />
        </mxCell>
        <mxCell id="zctFz-qKtqswH_JM95j2-5" value="Name" style="ellipse;shape=cloud;whiteSpace=wrap;html=1;" vertex="1" parent="1">
          <mxGeometry x="-10" y="130" width="100" height="70" as="geometry" />
        </mxCell>
        <mxCell id="zctFz-qKtqswH_JM95j2-6" value="Address" style="ellipse;shape=cloud;whiteSpace=wrap;html=1;" vertex="1" parent="1">
          <mxGeometry x="250" y="100" width="100" height="70" as="geometry" />
        </mxCell>
        <mxCell id="zctFz-qKtqswH_JM95j2-7" value="Name" style="ellipse;shape=cloud;whiteSpace=wrap;html=1;" vertex="1" parent="1">
          <mxGeometry x="350" y="105" width="100" height="70" as="geometry" />
        </mxCell>
        <mxCell id="zctFz-qKtqswH_JM95j2-8" value="Name" style="ellipse;shape=cloud;whiteSpace=wrap;html=1;" vertex="1" parent="1">
          <mxGeometry x="500" y="125" width="100" height="70" as="geometry" />
        </mxCell>
        <mxCell id="zctFz-qKtqswH_JM95j2-9" value="Address" style="ellipse;shape=cloud;whiteSpace=wrap;html=1;" vertex="1" parent="1">
          <mxGeometry x="600" y="125" width="100" height="80" as="geometry" />
        </mxCell>
        <mxCell id="zctFz-qKtqswH_JM95j2-10" value="Employees" style="ellipse;shape=cloud;whiteSpace=wrap;html=1;" vertex="1" parent="1">
          <mxGeometry x="300" y="35" width="110" height="70" as="geometry" />
        </mxCell>
        <mxCell id="m-EKz_-MCO9K75s8XgJf-1" value="" style="endArrow=none;dashed=1;html=1;dashPattern=1 3;strokeWidth=2;entryX=0.482;entryY=0.929;entryDx=0;entryDy=0;entryPerimeter=0;" edge="1" parent="1" target="zctFz-qKtqswH_JM95j2-10">
          <mxGeometry width="50" height="50" relative="1" as="geometry">
            <mxPoint x="350" y="210" as="sourcePoint" />
            <mxPoint x="380" y="260" as="targetPoint" />
          </mxGeometry>
        </mxCell>
        <mxCell id="m-EKz_-MCO9K75s8XgJf-2" value="" style="endArrow=none;dashed=1;html=1;dashPattern=1 3;strokeWidth=2;entryX=0.37;entryY=0.9;entryDx=0;entryDy=0;entryPerimeter=0;" edge="1" parent="1" target="zctFz-qKtqswH_JM95j2-7">
          <mxGeometry width="50" height="50" relative="1" as="geometry">
            <mxPoint x="350" y="210" as="sourcePoint" />
            <mxPoint x="380" y="260" as="targetPoint" />
          </mxGeometry>
        </mxCell>
        <mxCell id="m-EKz_-MCO9K75s8XgJf-3" value="" style="endArrow=none;dashed=1;html=1;dashPattern=1 3;strokeWidth=2;entryX=0.55;entryY=0.95;entryDx=0;entryDy=0;entryPerimeter=0;" edge="1" parent="1" target="zctFz-qKtqswH_JM95j2-6">
          <mxGeometry width="50" height="50" relative="1" as="geometry">
            <mxPoint x="350" y="210" as="sourcePoint" />
            <mxPoint x="380" y="260" as="targetPoint" />
          </mxGeometry>
        </mxCell>
        <mxCell id="m-EKz_-MCO9K75s8XgJf-4" value="" style="endArrow=none;dashed=1;html=1;dashPattern=1 3;strokeWidth=2;entryX=0.55;entryY=0.95;entryDx=0;entryDy=0;entryPerimeter=0;" edge="1" parent="1" target="zctFz-qKtqswH_JM95j2-4">
          <mxGeometry width="50" height="50" relative="1" as="geometry">
            <mxPoint x="90" y="210" as="sourcePoint" />
            <mxPoint x="380" y="260" as="targetPoint" />
          </mxGeometry>
        </mxCell>
        <mxCell id="m-EKz_-MCO9K75s8XgJf-5" value="" style="endArrow=none;dashed=1;html=1;dashPattern=1 3;strokeWidth=2;entryX=0.55;entryY=0.95;entryDx=0;entryDy=0;entryPerimeter=0;" edge="1" parent="1" target="zctFz-qKtqswH_JM95j2-5">
          <mxGeometry width="50" height="50" relative="1" as="geometry">
            <mxPoint x="90" y="210" as="sourcePoint" />
            <mxPoint x="380" y="260" as="targetPoint" />
          </mxGeometry>
        </mxCell>
        <mxCell id="m-EKz_-MCO9K75s8XgJf-6" value="" style="endArrow=none;dashed=1;html=1;dashPattern=1 3;strokeWidth=2;entryX=0.43;entryY=0.963;entryDx=0;entryDy=0;entryPerimeter=0;" edge="1" parent="1" target="zctFz-qKtqswH_JM95j2-9">
          <mxGeometry width="50" height="50" relative="1" as="geometry">
            <mxPoint x="600" y="210" as="sourcePoint" />
            <mxPoint x="380" y="260" as="targetPoint" />
          </mxGeometry>
        </mxCell>
        <mxCell id="m-EKz_-MCO9K75s8XgJf-7" value="" style="endArrow=none;dashed=1;html=1;dashPattern=1 3;strokeWidth=2;entryX=0.55;entryY=0.95;entryDx=0;entryDy=0;entryPerimeter=0;" edge="1" parent="1" target="zctFz-qKtqswH_JM95j2-8">
          <mxGeometry width="50" height="50" relative="1" as="geometry">
            <mxPoint x="600" y="210" as="sourcePoint" />
            <mxPoint x="380" y="260" as="targetPoint" />
          </mxGeometry>
        </mxCell>
      </root>
    </mxGraphModel>
  </diagram>
  <diagram id="4RftJT1UgGDnMuMvrm-z" name="Page-2">
    <mxGraphModel dx="1014" dy="543" grid="1" gridSize="10" guides="1" tooltips="1" connect="1" arrows="1" fold="1" page="1" pageScale="1" pageWidth="850" pageHeight="1100" math="0" shadow="0">
      <root>
        <mxCell id="ghjpyszU_ehz85W0M_gI-0" />
        <mxCell id="ghjpyszU_ehz85W0M_gI-1" parent="ghjpyszU_ehz85W0M_gI-0" />
        <mxCell id="ghjpyszU_ehz85W0M_gI-2" value="Post Office" style="rounded=0;whiteSpace=wrap;html=1;" vertex="1" parent="ghjpyszU_ehz85W0M_gI-1">
          <mxGeometry x="300" y="250" width="120" height="60" as="geometry" />
        </mxCell>
        <mxCell id="ghjpyszU_ehz85W0M_gI-3" value="Sender" style="rounded=0;whiteSpace=wrap;html=1;" vertex="1" parent="ghjpyszU_ehz85W0M_gI-1">
          <mxGeometry x="80" y="300" width="120" height="60" as="geometry" />
        </mxCell>
        <mxCell id="ghjpyszU_ehz85W0M_gI-4" value="Recipient" style="rounded=0;whiteSpace=wrap;html=1;" vertex="1" parent="ghjpyszU_ehz85W0M_gI-1">
          <mxGeometry x="520" y="300" width="120" height="60" as="geometry" />
        </mxCell>
        <mxCell id="ghjpyszU_ehz85W0M_gI-5" value="Name" style="ellipse;whiteSpace=wrap;html=1;" vertex="1" parent="ghjpyszU_ehz85W0M_gI-1">
          <mxGeometry y="130" width="120" height="70" as="geometry" />
        </mxCell>
        <mxCell id="ghjpyszU_ehz85W0M_gI-6" value="Name" style="ellipse;whiteSpace=wrap;html=1;" vertex="1" parent="ghjpyszU_ehz85W0M_gI-1">
          <mxGeometry x="260" y="140" width="120" height="70" as="geometry" />
        </mxCell>
        <mxCell id="ghjpyszU_ehz85W0M_gI-7" value="Address" style="ellipse;whiteSpace=wrap;html=1;" vertex="1" parent="ghjpyszU_ehz85W0M_gI-1">
          <mxGeometry x="365" y="80" width="120" height="70" as="geometry" />
        </mxCell>
        <mxCell id="ghjpyszU_ehz85W0M_gI-8" value="Name&amp;nbsp;" style="ellipse;whiteSpace=wrap;html=1;" vertex="1" parent="ghjpyszU_ehz85W0M_gI-1">
          <mxGeometry x="500" y="190" width="120" height="70" as="geometry" />
        </mxCell>
        <mxCell id="ghjpyszU_ehz85W0M_gI-9" value="Address" style="ellipse;whiteSpace=wrap;html=1;" vertex="1" parent="ghjpyszU_ehz85W0M_gI-1">
          <mxGeometry x="590" y="120" width="120" height="70" as="geometry" />
        </mxCell>
        <mxCell id="ghjpyszU_ehz85W0M_gI-10" value="Address" style="ellipse;whiteSpace=wrap;html=1;" vertex="1" parent="ghjpyszU_ehz85W0M_gI-1">
          <mxGeometry x="110" y="190" width="120" height="70" as="geometry" />
        </mxCell>
        <mxCell id="ghjpyszU_ehz85W0M_gI-11" value="" style="endArrow=none;html=1;exitX=0.425;exitY=-0.033;exitDx=0;exitDy=0;exitPerimeter=0;" edge="1" parent="ghjpyszU_ehz85W0M_gI-1" source="ghjpyszU_ehz85W0M_gI-3">
          <mxGeometry width="50" height="50" relative="1" as="geometry">
            <mxPoint x="330" y="310" as="sourcePoint" />
            <mxPoint x="50" y="200" as="targetPoint" />
            <Array as="points">
              <mxPoint x="50" y="200" />
            </Array>
          </mxGeometry>
        </mxCell>
        <mxCell id="ghjpyszU_ehz85W0M_gI-13" value="" style="endArrow=none;html=1;entryX=0.5;entryY=1;entryDx=0;entryDy=0;exitX=0.45;exitY=0.017;exitDx=0;exitDy=0;exitPerimeter=0;" edge="1" parent="ghjpyszU_ehz85W0M_gI-1" source="ghjpyszU_ehz85W0M_gI-3" target="ghjpyszU_ehz85W0M_gI-10">
          <mxGeometry width="50" height="50" relative="1" as="geometry">
            <mxPoint x="330" y="310" as="sourcePoint" />
            <mxPoint x="380" y="260" as="targetPoint" />
          </mxGeometry>
        </mxCell>
        <mxCell id="ghjpyszU_ehz85W0M_gI-14" value="" style="endArrow=none;html=1;entryX=0.592;entryY=1.029;entryDx=0;entryDy=0;entryPerimeter=0;exitX=0.5;exitY=0;exitDx=0;exitDy=0;" edge="1" parent="ghjpyszU_ehz85W0M_gI-1" source="ghjpyszU_ehz85W0M_gI-2" target="ghjpyszU_ehz85W0M_gI-6">
          <mxGeometry width="50" height="50" relative="1" as="geometry">
            <mxPoint x="330" y="310" as="sourcePoint" />
            <mxPoint x="380" y="260" as="targetPoint" />
          </mxGeometry>
        </mxCell>
        <mxCell id="ghjpyszU_ehz85W0M_gI-15" value="" style="endArrow=none;html=1;entryX=0.5;entryY=1;entryDx=0;entryDy=0;exitX=0.5;exitY=0;exitDx=0;exitDy=0;" edge="1" parent="ghjpyszU_ehz85W0M_gI-1" source="ghjpyszU_ehz85W0M_gI-2" target="ghjpyszU_ehz85W0M_gI-7">
          <mxGeometry width="50" height="50" relative="1" as="geometry">
            <mxPoint x="330" y="310" as="sourcePoint" />
            <mxPoint x="380" y="260" as="targetPoint" />
          </mxGeometry>
        </mxCell>
        <mxCell id="ghjpyszU_ehz85W0M_gI-16" value="" style="endArrow=none;html=1;entryX=0.5;entryY=1;entryDx=0;entryDy=0;exitX=0.608;exitY=-0.05;exitDx=0;exitDy=0;exitPerimeter=0;" edge="1" parent="ghjpyszU_ehz85W0M_gI-1" source="ghjpyszU_ehz85W0M_gI-4" target="ghjpyszU_ehz85W0M_gI-9">
          <mxGeometry width="50" height="50" relative="1" as="geometry">
            <mxPoint x="330" y="310" as="sourcePoint" />
            <mxPoint x="380" y="260" as="targetPoint" />
          </mxGeometry>
        </mxCell>
        <mxCell id="ghjpyszU_ehz85W0M_gI-17" value="" style="endArrow=none;html=1;entryX=0.5;entryY=1;entryDx=0;entryDy=0;exitX=0.558;exitY=-0.017;exitDx=0;exitDy=0;exitPerimeter=0;" edge="1" parent="ghjpyszU_ehz85W0M_gI-1" source="ghjpyszU_ehz85W0M_gI-4" target="ghjpyszU_ehz85W0M_gI-8">
          <mxGeometry width="50" height="50" relative="1" as="geometry">
            <mxPoint x="330" y="310" as="sourcePoint" />
            <mxPoint x="380" y="260" as="targetPoint" />
          </mxGeometry>
        </mxCell>
        <mxCell id="ghjpyszU_ehz85W0M_gI-18" value="Employees" style="ellipse;whiteSpace=wrap;html=1;" vertex="1" parent="ghjpyszU_ehz85W0M_gI-1">
          <mxGeometry x="260" y="30" width="120" height="70" as="geometry" />
        </mxCell>
        <mxCell id="ghjpyszU_ehz85W0M_gI-19" value="" style="endArrow=none;html=1;entryX=0.5;entryY=1;entryDx=0;entryDy=0;exitX=0.5;exitY=0;exitDx=0;exitDy=0;" edge="1" parent="ghjpyszU_ehz85W0M_gI-1" source="ghjpyszU_ehz85W0M_gI-2" target="ghjpyszU_ehz85W0M_gI-18">
          <mxGeometry width="50" height="50" relative="1" as="geometry">
            <mxPoint x="330" y="310" as="sourcePoint" />
            <mxPoint x="380" y="260" as="targetPoint" />
          </mxGeometry>
        </mxCell>
        <mxCell id="dOLD7dYJR5q9XsYReEm2-0" value="" style="edgeStyle=entityRelationEdgeStyle;fontSize=12;html=1;endArrow=ERzeroToMany;endFill=1;startArrow=ERzeroToMany;exitX=1;exitY=0.5;exitDx=0;exitDy=0;" edge="1" parent="ghjpyszU_ehz85W0M_gI-1" source="ghjpyszU_ehz85W0M_gI-3">
          <mxGeometry width="100" height="100" relative="1" as="geometry">
            <mxPoint x="310" y="300" as="sourcePoint" />
            <mxPoint x="299" y="280" as="targetPoint" />
          </mxGeometry>
        </mxCell>
        <mxCell id="dOLD7dYJR5q9XsYReEm2-1" value="" style="edgeStyle=entityRelationEdgeStyle;fontSize=12;html=1;endArrow=ERzeroToMany;endFill=1;startArrow=ERzeroToMany;entryX=1;entryY=0.5;entryDx=0;entryDy=0;exitX=0;exitY=0.5;exitDx=0;exitDy=0;" edge="1" parent="ghjpyszU_ehz85W0M_gI-1" source="ghjpyszU_ehz85W0M_gI-4" target="ghjpyszU_ehz85W0M_gI-2">
          <mxGeometry width="100" height="100" relative="1" as="geometry">
            <mxPoint x="210" y="340" as="sourcePoint" />
            <mxPoint x="309.03999999999996" y="282.98" as="targetPoint" />
          </mxGeometry>
        </mxCell>
      </root>
    </mxGraphModel>
  </diagram>
  <diagram id="srvN4-efNjMNjZ_MNwVc" name="Page-3">
    <mxGraphModel dx="1014" dy="543" grid="1" gridSize="10" guides="1" tooltips="1" connect="1" arrows="1" fold="1" page="1" pageScale="1" pageWidth="850" pageHeight="1100" math="0" shadow="0">
      <root>
        <mxCell id="T46JJICGjrdkXwZjyX4P-0" />
        <mxCell id="T46JJICGjrdkXwZjyX4P-1" parent="T46JJICGjrdkXwZjyX4P-0" />
        <mxCell id="tzRSR21Z5KdkRfXlDfqf-54" value="Post Office" style="shape=table;startSize=30;container=1;collapsible=1;childLayout=tableLayout;fixedRows=1;rowLines=0;fontStyle=1;align=center;resizeLast=1;" vertex="1" parent="T46JJICGjrdkXwZjyX4P-1">
          <mxGeometry x="260" y="200" width="180" height="190" as="geometry" />
        </mxCell>
        <mxCell id="tzRSR21Z5KdkRfXlDfqf-55" value="" style="shape=partialRectangle;collapsible=0;dropTarget=0;pointerEvents=0;fillColor=none;top=0;left=0;bottom=1;right=0;points=[[0,0.5],[1,0.5]];portConstraint=eastwest;" vertex="1" parent="tzRSR21Z5KdkRfXlDfqf-54">
          <mxGeometry y="30" width="180" height="30" as="geometry" />
        </mxCell>
        <mxCell id="tzRSR21Z5KdkRfXlDfqf-56" value="PK" style="shape=partialRectangle;connectable=0;fillColor=none;top=0;left=0;bottom=0;right=0;fontStyle=1;overflow=hidden;" vertex="1" parent="tzRSR21Z5KdkRfXlDfqf-55">
          <mxGeometry width="30" height="30" as="geometry" />
        </mxCell>
        <mxCell id="tzRSR21Z5KdkRfXlDfqf-57" value="PostofficeId" style="shape=partialRectangle;connectable=0;fillColor=none;top=0;left=0;bottom=0;right=0;align=left;spacingLeft=6;fontStyle=5;overflow=hidden;" vertex="1" parent="tzRSR21Z5KdkRfXlDfqf-55">
          <mxGeometry x="30" width="150" height="30" as="geometry" />
        </mxCell>
        <mxCell id="tzRSR21Z5KdkRfXlDfqf-58" value="" style="shape=partialRectangle;collapsible=0;dropTarget=0;pointerEvents=0;fillColor=none;top=0;left=0;bottom=0;right=0;points=[[0,0.5],[1,0.5]];portConstraint=eastwest;" vertex="1" parent="tzRSR21Z5KdkRfXlDfqf-54">
          <mxGeometry y="60" width="180" height="30" as="geometry" />
        </mxCell>
        <mxCell id="tzRSR21Z5KdkRfXlDfqf-59" value="" style="shape=partialRectangle;connectable=0;fillColor=none;top=0;left=0;bottom=0;right=0;editable=1;overflow=hidden;" vertex="1" parent="tzRSR21Z5KdkRfXlDfqf-58">
          <mxGeometry width="30" height="30" as="geometry" />
        </mxCell>
        <mxCell id="tzRSR21Z5KdkRfXlDfqf-60" value="Name" style="shape=partialRectangle;connectable=0;fillColor=none;top=0;left=0;bottom=0;right=0;align=left;spacingLeft=6;overflow=hidden;" vertex="1" parent="tzRSR21Z5KdkRfXlDfqf-58">
          <mxGeometry x="30" width="150" height="30" as="geometry" />
        </mxCell>
        <mxCell id="tzRSR21Z5KdkRfXlDfqf-61" value="" style="shape=partialRectangle;collapsible=0;dropTarget=0;pointerEvents=0;fillColor=none;top=0;left=0;bottom=0;right=0;points=[[0,0.5],[1,0.5]];portConstraint=eastwest;" vertex="1" parent="tzRSR21Z5KdkRfXlDfqf-54">
          <mxGeometry y="90" width="180" height="30" as="geometry" />
        </mxCell>
        <mxCell id="tzRSR21Z5KdkRfXlDfqf-62" value="" style="shape=partialRectangle;connectable=0;fillColor=none;top=0;left=0;bottom=0;right=0;editable=1;overflow=hidden;" vertex="1" parent="tzRSR21Z5KdkRfXlDfqf-61">
          <mxGeometry width="30" height="30" as="geometry" />
        </mxCell>
        <mxCell id="tzRSR21Z5KdkRfXlDfqf-63" value="address" style="shape=partialRectangle;connectable=0;fillColor=none;top=0;left=0;bottom=0;right=0;align=left;spacingLeft=6;overflow=hidden;" vertex="1" parent="tzRSR21Z5KdkRfXlDfqf-61">
          <mxGeometry x="30" width="150" height="30" as="geometry" />
        </mxCell>
        <mxCell id="tzRSR21Z5KdkRfXlDfqf-64" value="" style="shape=partialRectangle;collapsible=0;dropTarget=0;pointerEvents=0;fillColor=none;top=0;left=0;bottom=0;right=0;points=[[0,0.5],[1,0.5]];portConstraint=eastwest;" vertex="1" parent="tzRSR21Z5KdkRfXlDfqf-54">
          <mxGeometry y="120" width="180" height="30" as="geometry" />
        </mxCell>
        <mxCell id="tzRSR21Z5KdkRfXlDfqf-65" value="" style="shape=partialRectangle;connectable=0;fillColor=none;top=0;left=0;bottom=0;right=0;editable=1;overflow=hidden;" vertex="1" parent="tzRSR21Z5KdkRfXlDfqf-64">
          <mxGeometry width="30" height="30" as="geometry" />
        </mxCell>
        <mxCell id="tzRSR21Z5KdkRfXlDfqf-66" value="employees" style="shape=partialRectangle;connectable=0;fillColor=none;top=0;left=0;bottom=0;right=0;align=left;spacingLeft=6;overflow=hidden;" vertex="1" parent="tzRSR21Z5KdkRfXlDfqf-64">
          <mxGeometry x="30" width="150" height="30" as="geometry" />
        </mxCell>
        <mxCell id="tzRSR21Z5KdkRfXlDfqf-93" value="" style="shape=partialRectangle;collapsible=0;dropTarget=0;pointerEvents=0;fillColor=none;top=0;left=0;bottom=0;right=0;points=[[0,0.5],[1,0.5]];portConstraint=eastwest;" vertex="1" parent="tzRSR21Z5KdkRfXlDfqf-54">
          <mxGeometry y="150" width="180" height="30" as="geometry" />
        </mxCell>
        <mxCell id="tzRSR21Z5KdkRfXlDfqf-94" value="" style="shape=partialRectangle;connectable=0;fillColor=none;top=0;left=0;bottom=0;right=0;editable=1;overflow=hidden;" vertex="1" parent="tzRSR21Z5KdkRfXlDfqf-93">
          <mxGeometry width="30" height="30" as="geometry" />
        </mxCell>
        <mxCell id="tzRSR21Z5KdkRfXlDfqf-95" value="package" style="shape=partialRectangle;connectable=0;fillColor=none;top=0;left=0;bottom=0;right=0;align=left;spacingLeft=6;overflow=hidden;" vertex="1" parent="tzRSR21Z5KdkRfXlDfqf-93">
          <mxGeometry x="30" width="150" height="30" as="geometry" />
        </mxCell>
        <mxCell id="tzRSR21Z5KdkRfXlDfqf-67" value="Sender" style="shape=table;startSize=30;container=1;collapsible=1;childLayout=tableLayout;fixedRows=1;rowLines=0;fontStyle=1;align=center;resizeLast=1;" vertex="1" parent="T46JJICGjrdkXwZjyX4P-1">
          <mxGeometry x="20" y="200" width="180" height="160" as="geometry" />
        </mxCell>
        <mxCell id="tzRSR21Z5KdkRfXlDfqf-68" value="" style="shape=partialRectangle;collapsible=0;dropTarget=0;pointerEvents=0;fillColor=none;top=0;left=0;bottom=1;right=0;points=[[0,0.5],[1,0.5]];portConstraint=eastwest;" vertex="1" parent="tzRSR21Z5KdkRfXlDfqf-67">
          <mxGeometry y="30" width="180" height="30" as="geometry" />
        </mxCell>
        <mxCell id="tzRSR21Z5KdkRfXlDfqf-69" value="PK" style="shape=partialRectangle;connectable=0;fillColor=none;top=0;left=0;bottom=0;right=0;fontStyle=1;overflow=hidden;" vertex="1" parent="tzRSR21Z5KdkRfXlDfqf-68">
          <mxGeometry width="30" height="30" as="geometry" />
        </mxCell>
        <mxCell id="tzRSR21Z5KdkRfXlDfqf-70" value="SenderId" style="shape=partialRectangle;connectable=0;fillColor=none;top=0;left=0;bottom=0;right=0;align=left;spacingLeft=6;fontStyle=5;overflow=hidden;" vertex="1" parent="tzRSR21Z5KdkRfXlDfqf-68">
          <mxGeometry x="30" width="150" height="30" as="geometry" />
        </mxCell>
        <mxCell id="tzRSR21Z5KdkRfXlDfqf-71" value="" style="shape=partialRectangle;collapsible=0;dropTarget=0;pointerEvents=0;fillColor=none;top=0;left=0;bottom=0;right=0;points=[[0,0.5],[1,0.5]];portConstraint=eastwest;" vertex="1" parent="tzRSR21Z5KdkRfXlDfqf-67">
          <mxGeometry y="60" width="180" height="30" as="geometry" />
        </mxCell>
        <mxCell id="tzRSR21Z5KdkRfXlDfqf-72" value="" style="shape=partialRectangle;connectable=0;fillColor=none;top=0;left=0;bottom=0;right=0;editable=1;overflow=hidden;" vertex="1" parent="tzRSR21Z5KdkRfXlDfqf-71">
          <mxGeometry width="30" height="30" as="geometry" />
        </mxCell>
        <mxCell id="tzRSR21Z5KdkRfXlDfqf-73" value="Name" style="shape=partialRectangle;connectable=0;fillColor=none;top=0;left=0;bottom=0;right=0;align=left;spacingLeft=6;overflow=hidden;" vertex="1" parent="tzRSR21Z5KdkRfXlDfqf-71">
          <mxGeometry x="30" width="150" height="30" as="geometry" />
        </mxCell>
        <mxCell id="tzRSR21Z5KdkRfXlDfqf-74" value="" style="shape=partialRectangle;collapsible=0;dropTarget=0;pointerEvents=0;fillColor=none;top=0;left=0;bottom=0;right=0;points=[[0,0.5],[1,0.5]];portConstraint=eastwest;" vertex="1" parent="tzRSR21Z5KdkRfXlDfqf-67">
          <mxGeometry y="90" width="180" height="30" as="geometry" />
        </mxCell>
        <mxCell id="tzRSR21Z5KdkRfXlDfqf-75" value="" style="shape=partialRectangle;connectable=0;fillColor=none;top=0;left=0;bottom=0;right=0;editable=1;overflow=hidden;" vertex="1" parent="tzRSR21Z5KdkRfXlDfqf-74">
          <mxGeometry width="30" height="30" as="geometry" />
        </mxCell>
        <mxCell id="tzRSR21Z5KdkRfXlDfqf-76" value="Address" style="shape=partialRectangle;connectable=0;fillColor=none;top=0;left=0;bottom=0;right=0;align=left;spacingLeft=6;overflow=hidden;" vertex="1" parent="tzRSR21Z5KdkRfXlDfqf-74">
          <mxGeometry x="30" width="150" height="30" as="geometry" />
        </mxCell>
        <mxCell id="tzRSR21Z5KdkRfXlDfqf-77" value="" style="shape=partialRectangle;collapsible=0;dropTarget=0;pointerEvents=0;fillColor=none;top=0;left=0;bottom=0;right=0;points=[[0,0.5],[1,0.5]];portConstraint=eastwest;" vertex="1" parent="tzRSR21Z5KdkRfXlDfqf-67">
          <mxGeometry y="120" width="180" height="30" as="geometry" />
        </mxCell>
        <mxCell id="tzRSR21Z5KdkRfXlDfqf-78" value="" style="shape=partialRectangle;connectable=0;fillColor=none;top=0;left=0;bottom=0;right=0;editable=1;overflow=hidden;" vertex="1" parent="tzRSR21Z5KdkRfXlDfqf-77">
          <mxGeometry width="30" height="30" as="geometry" />
        </mxCell>
        <mxCell id="tzRSR21Z5KdkRfXlDfqf-79" value="Package" style="shape=partialRectangle;connectable=0;fillColor=none;top=0;left=0;bottom=0;right=0;align=left;spacingLeft=6;overflow=hidden;" vertex="1" parent="tzRSR21Z5KdkRfXlDfqf-77">
          <mxGeometry x="30" width="150" height="30" as="geometry" />
        </mxCell>
        <mxCell id="tzRSR21Z5KdkRfXlDfqf-80" value="Recipient" style="shape=table;startSize=30;container=1;collapsible=1;childLayout=tableLayout;fixedRows=1;rowLines=0;fontStyle=1;align=center;resizeLast=1;" vertex="1" parent="T46JJICGjrdkXwZjyX4P-1">
          <mxGeometry x="500" y="200" width="180" height="160" as="geometry" />
        </mxCell>
        <mxCell id="tzRSR21Z5KdkRfXlDfqf-81" value="" style="shape=partialRectangle;collapsible=0;dropTarget=0;pointerEvents=0;fillColor=none;top=0;left=0;bottom=1;right=0;points=[[0,0.5],[1,0.5]];portConstraint=eastwest;" vertex="1" parent="tzRSR21Z5KdkRfXlDfqf-80">
          <mxGeometry y="30" width="180" height="30" as="geometry" />
        </mxCell>
        <mxCell id="tzRSR21Z5KdkRfXlDfqf-82" value="PK" style="shape=partialRectangle;connectable=0;fillColor=none;top=0;left=0;bottom=0;right=0;fontStyle=1;overflow=hidden;" vertex="1" parent="tzRSR21Z5KdkRfXlDfqf-81">
          <mxGeometry width="30" height="30" as="geometry" />
        </mxCell>
        <mxCell id="tzRSR21Z5KdkRfXlDfqf-83" value="RecipientId" style="shape=partialRectangle;connectable=0;fillColor=none;top=0;left=0;bottom=0;right=0;align=left;spacingLeft=6;fontStyle=5;overflow=hidden;" vertex="1" parent="tzRSR21Z5KdkRfXlDfqf-81">
          <mxGeometry x="30" width="150" height="30" as="geometry" />
        </mxCell>
        <mxCell id="tzRSR21Z5KdkRfXlDfqf-84" value="" style="shape=partialRectangle;collapsible=0;dropTarget=0;pointerEvents=0;fillColor=none;top=0;left=0;bottom=0;right=0;points=[[0,0.5],[1,0.5]];portConstraint=eastwest;" vertex="1" parent="tzRSR21Z5KdkRfXlDfqf-80">
          <mxGeometry y="60" width="180" height="30" as="geometry" />
        </mxCell>
        <mxCell id="tzRSR21Z5KdkRfXlDfqf-85" value="" style="shape=partialRectangle;connectable=0;fillColor=none;top=0;left=0;bottom=0;right=0;editable=1;overflow=hidden;" vertex="1" parent="tzRSR21Z5KdkRfXlDfqf-84">
          <mxGeometry width="30" height="30" as="geometry" />
        </mxCell>
        <mxCell id="tzRSR21Z5KdkRfXlDfqf-86" value="Name" style="shape=partialRectangle;connectable=0;fillColor=none;top=0;left=0;bottom=0;right=0;align=left;spacingLeft=6;overflow=hidden;" vertex="1" parent="tzRSR21Z5KdkRfXlDfqf-84">
          <mxGeometry x="30" width="150" height="30" as="geometry" />
        </mxCell>
        <mxCell id="tzRSR21Z5KdkRfXlDfqf-87" value="" style="shape=partialRectangle;collapsible=0;dropTarget=0;pointerEvents=0;fillColor=none;top=0;left=0;bottom=0;right=0;points=[[0,0.5],[1,0.5]];portConstraint=eastwest;" vertex="1" parent="tzRSR21Z5KdkRfXlDfqf-80">
          <mxGeometry y="90" width="180" height="30" as="geometry" />
        </mxCell>
        <mxCell id="tzRSR21Z5KdkRfXlDfqf-88" value="" style="shape=partialRectangle;connectable=0;fillColor=none;top=0;left=0;bottom=0;right=0;editable=1;overflow=hidden;" vertex="1" parent="tzRSR21Z5KdkRfXlDfqf-87">
          <mxGeometry width="30" height="30" as="geometry" />
        </mxCell>
        <mxCell id="tzRSR21Z5KdkRfXlDfqf-89" value="address" style="shape=partialRectangle;connectable=0;fillColor=none;top=0;left=0;bottom=0;right=0;align=left;spacingLeft=6;overflow=hidden;" vertex="1" parent="tzRSR21Z5KdkRfXlDfqf-87">
          <mxGeometry x="30" width="150" height="30" as="geometry" />
        </mxCell>
        <mxCell id="tzRSR21Z5KdkRfXlDfqf-90" value="" style="shape=partialRectangle;collapsible=0;dropTarget=0;pointerEvents=0;fillColor=none;top=0;left=0;bottom=0;right=0;points=[[0,0.5],[1,0.5]];portConstraint=eastwest;" vertex="1" parent="tzRSR21Z5KdkRfXlDfqf-80">
          <mxGeometry y="120" width="180" height="30" as="geometry" />
        </mxCell>
        <mxCell id="tzRSR21Z5KdkRfXlDfqf-91" value="" style="shape=partialRectangle;connectable=0;fillColor=none;top=0;left=0;bottom=0;right=0;editable=1;overflow=hidden;" vertex="1" parent="tzRSR21Z5KdkRfXlDfqf-90">
          <mxGeometry width="30" height="30" as="geometry" />
        </mxCell>
        <mxCell id="tzRSR21Z5KdkRfXlDfqf-92" value="package" style="shape=partialRectangle;connectable=0;fillColor=none;top=0;left=0;bottom=0;right=0;align=left;spacingLeft=6;overflow=hidden;" vertex="1" parent="tzRSR21Z5KdkRfXlDfqf-90">
          <mxGeometry x="30" width="150" height="30" as="geometry" />
        </mxCell>
        <mxCell id="fcXD6pNmAwwQZ0LGz-VD-0" value="" style="edgeStyle=entityRelationEdgeStyle;fontSize=12;html=1;endArrow=ERzeroToMany;endFill=1;startArrow=ERzeroToMany;exitX=1;exitY=0.5;exitDx=0;exitDy=0;entryX=0;entryY=0.5;entryDx=0;entryDy=0;" edge="1" parent="T46JJICGjrdkXwZjyX4P-1" source="tzRSR21Z5KdkRfXlDfqf-71" target="tzRSR21Z5KdkRfXlDfqf-58">
          <mxGeometry width="100" height="100" relative="1" as="geometry">
            <mxPoint x="270" y="490" as="sourcePoint" />
            <mxPoint x="250" y="280" as="targetPoint" />
          </mxGeometry>
        </mxCell>
        <mxCell id="fcXD6pNmAwwQZ0LGz-VD-1" value="" style="edgeStyle=entityRelationEdgeStyle;fontSize=12;html=1;endArrow=ERzeroToMany;endFill=1;startArrow=ERzeroToMany;exitX=1;exitY=0.5;exitDx=0;exitDy=0;entryX=0;entryY=0.5;entryDx=0;entryDy=0;" edge="1" parent="T46JJICGjrdkXwZjyX4P-1">
          <mxGeometry width="100" height="100" relative="1" as="geometry">
            <mxPoint x="440" y="270" as="sourcePoint" />
            <mxPoint x="500" y="270" as="targetPoint" />
          </mxGeometry>
        </mxCell>
      </root>
    </mxGraphModel>
  </diagram>
  <diagram id="qeou_zgqruIYbfOHh6r7" name="Page-5">
    <mxGraphModel dx="730" dy="1876" grid="1" gridSize="10" guides="1" tooltips="1" connect="1" arrows="1" fold="1" page="1" pageScale="1" pageWidth="850" pageHeight="1100" math="0" shadow="0">
      <root>
        <mxCell id="t-heXbu7Nx1hkAENzGRH-0" />
        <mxCell id="t-heXbu7Nx1hkAENzGRH-1" parent="t-heXbu7Nx1hkAENzGRH-0" />
        <mxCell id="t-heXbu7Nx1hkAENzGRH-31" value="Recipient" style="shape=table;startSize=30;container=1;collapsible=1;childLayout=tableLayout;fixedRows=1;rowLines=0;fontStyle=1;align=center;resizeLast=1;" vertex="1" parent="t-heXbu7Nx1hkAENzGRH-1">
          <mxGeometry x="1110" y="-60" width="180" height="150" as="geometry" />
        </mxCell>
        <mxCell id="t-heXbu7Nx1hkAENzGRH-32" value="" style="shape=partialRectangle;collapsible=0;dropTarget=0;pointerEvents=0;fillColor=none;top=0;left=0;bottom=1;right=0;points=[[0,0.5],[1,0.5]];portConstraint=eastwest;" vertex="1" parent="t-heXbu7Nx1hkAENzGRH-31">
          <mxGeometry y="30" width="180" height="30" as="geometry" />
        </mxCell>
        <mxCell id="t-heXbu7Nx1hkAENzGRH-33" value="PK" style="shape=partialRectangle;connectable=0;fillColor=none;top=0;left=0;bottom=0;right=0;fontStyle=1;overflow=hidden;" vertex="1" parent="t-heXbu7Nx1hkAENzGRH-32">
          <mxGeometry width="30" height="30" as="geometry" />
        </mxCell>
        <mxCell id="t-heXbu7Nx1hkAENzGRH-34" value="recipientId" style="shape=partialRectangle;connectable=0;fillColor=none;top=0;left=0;bottom=0;right=0;align=left;spacingLeft=6;fontStyle=5;overflow=hidden;" vertex="1" parent="t-heXbu7Nx1hkAENzGRH-32">
          <mxGeometry x="30" width="150" height="30" as="geometry" />
        </mxCell>
        <mxCell id="t-heXbu7Nx1hkAENzGRH-35" value="" style="shape=partialRectangle;collapsible=0;dropTarget=0;pointerEvents=0;fillColor=none;top=0;left=0;bottom=0;right=0;points=[[0,0.5],[1,0.5]];portConstraint=eastwest;" vertex="1" parent="t-heXbu7Nx1hkAENzGRH-31">
          <mxGeometry y="60" width="180" height="20" as="geometry" />
        </mxCell>
        <mxCell id="t-heXbu7Nx1hkAENzGRH-36" value="" style="shape=partialRectangle;connectable=0;fillColor=none;top=0;left=0;bottom=0;right=0;editable=1;overflow=hidden;" vertex="1" parent="t-heXbu7Nx1hkAENzGRH-35">
          <mxGeometry width="30" height="20" as="geometry" />
        </mxCell>
        <mxCell id="t-heXbu7Nx1hkAENzGRH-37" value="name" style="shape=partialRectangle;connectable=0;fillColor=none;top=0;left=0;bottom=0;right=0;align=left;spacingLeft=6;overflow=hidden;" vertex="1" parent="t-heXbu7Nx1hkAENzGRH-35">
          <mxGeometry x="30" width="150" height="20" as="geometry" />
        </mxCell>
        <mxCell id="t-heXbu7Nx1hkAENzGRH-38" value="" style="shape=partialRectangle;collapsible=0;dropTarget=0;pointerEvents=0;fillColor=none;top=0;left=0;bottom=0;right=0;points=[[0,0.5],[1,0.5]];portConstraint=eastwest;" vertex="1" parent="t-heXbu7Nx1hkAENzGRH-31">
          <mxGeometry y="80" width="180" height="30" as="geometry" />
        </mxCell>
        <mxCell id="t-heXbu7Nx1hkAENzGRH-39" value="FK" style="shape=partialRectangle;connectable=0;fillColor=none;top=0;left=0;bottom=0;right=0;editable=1;overflow=hidden;" vertex="1" parent="t-heXbu7Nx1hkAENzGRH-38">
          <mxGeometry width="30" height="30" as="geometry" />
        </mxCell>
        <mxCell id="t-heXbu7Nx1hkAENzGRH-40" value="addressId" style="shape=partialRectangle;connectable=0;fillColor=none;top=0;left=0;bottom=0;right=0;align=left;spacingLeft=6;overflow=hidden;" vertex="1" parent="t-heXbu7Nx1hkAENzGRH-38">
          <mxGeometry x="30" width="150" height="30" as="geometry" />
        </mxCell>
        <mxCell id="t-heXbu7Nx1hkAENzGRH-41" value="" style="shape=partialRectangle;collapsible=0;dropTarget=0;pointerEvents=0;fillColor=none;top=0;left=0;bottom=0;right=0;points=[[0,0.5],[1,0.5]];portConstraint=eastwest;" vertex="1" parent="t-heXbu7Nx1hkAENzGRH-31">
          <mxGeometry y="110" width="180" height="30" as="geometry" />
        </mxCell>
        <mxCell id="t-heXbu7Nx1hkAENzGRH-42" value="FK" style="shape=partialRectangle;connectable=0;fillColor=none;top=0;left=0;bottom=0;right=0;editable=1;overflow=hidden;" vertex="1" parent="t-heXbu7Nx1hkAENzGRH-41">
          <mxGeometry width="30" height="30" as="geometry" />
        </mxCell>
        <mxCell id="t-heXbu7Nx1hkAENzGRH-43" value="packageId" style="shape=partialRectangle;connectable=0;fillColor=none;top=0;left=0;bottom=0;right=0;align=left;spacingLeft=6;overflow=hidden;" vertex="1" parent="t-heXbu7Nx1hkAENzGRH-41">
          <mxGeometry x="30" width="150" height="30" as="geometry" />
        </mxCell>
        <mxCell id="_b2ubTzcU3wmrh2YWBbf-0" value="startingPost" style="shape=table;startSize=30;container=1;collapsible=1;childLayout=tableLayout;fixedRows=1;rowLines=0;fontStyle=1;align=center;resizeLast=1;" vertex="1" parent="t-heXbu7Nx1hkAENzGRH-1">
          <mxGeometry x="390" y="150" width="180" height="130" as="geometry" />
        </mxCell>
        <mxCell id="_b2ubTzcU3wmrh2YWBbf-1" value="" style="shape=partialRectangle;collapsible=0;dropTarget=0;pointerEvents=0;fillColor=none;top=0;left=0;bottom=1;right=0;points=[[0,0.5],[1,0.5]];portConstraint=eastwest;" vertex="1" parent="_b2ubTzcU3wmrh2YWBbf-0">
          <mxGeometry y="30" width="180" height="30" as="geometry" />
        </mxCell>
        <mxCell id="_b2ubTzcU3wmrh2YWBbf-2" value="PK" style="shape=partialRectangle;connectable=0;fillColor=none;top=0;left=0;bottom=0;right=0;fontStyle=1;overflow=hidden;" vertex="1" parent="_b2ubTzcU3wmrh2YWBbf-1">
          <mxGeometry width="30" height="30" as="geometry" />
        </mxCell>
        <mxCell id="_b2ubTzcU3wmrh2YWBbf-3" value="startId" style="shape=partialRectangle;connectable=0;fillColor=none;top=0;left=0;bottom=0;right=0;align=left;spacingLeft=6;fontStyle=5;overflow=hidden;" vertex="1" parent="_b2ubTzcU3wmrh2YWBbf-1">
          <mxGeometry x="30" width="150" height="30" as="geometry" />
        </mxCell>
        <mxCell id="_b2ubTzcU3wmrh2YWBbf-4" value="" style="shape=partialRectangle;collapsible=0;dropTarget=0;pointerEvents=0;fillColor=none;top=0;left=0;bottom=0;right=0;points=[[0,0.5],[1,0.5]];portConstraint=eastwest;" vertex="1" parent="_b2ubTzcU3wmrh2YWBbf-0">
          <mxGeometry y="60" width="180" height="30" as="geometry" />
        </mxCell>
        <mxCell id="_b2ubTzcU3wmrh2YWBbf-5" value="" style="shape=partialRectangle;connectable=0;fillColor=none;top=0;left=0;bottom=0;right=0;editable=1;overflow=hidden;" vertex="1" parent="_b2ubTzcU3wmrh2YWBbf-4">
          <mxGeometry width="30" height="30" as="geometry" />
        </mxCell>
        <mxCell id="_b2ubTzcU3wmrh2YWBbf-6" value="Name" style="shape=partialRectangle;connectable=0;fillColor=none;top=0;left=0;bottom=0;right=0;align=left;spacingLeft=6;overflow=hidden;" vertex="1" parent="_b2ubTzcU3wmrh2YWBbf-4">
          <mxGeometry x="30" width="150" height="30" as="geometry" />
        </mxCell>
        <mxCell id="_b2ubTzcU3wmrh2YWBbf-7" value="" style="shape=partialRectangle;collapsible=0;dropTarget=0;pointerEvents=0;fillColor=none;top=0;left=0;bottom=0;right=0;points=[[0,0.5],[1,0.5]];portConstraint=eastwest;" vertex="1" parent="_b2ubTzcU3wmrh2YWBbf-0">
          <mxGeometry y="90" width="180" height="30" as="geometry" />
        </mxCell>
        <mxCell id="_b2ubTzcU3wmrh2YWBbf-8" value="FK" style="shape=partialRectangle;connectable=0;fillColor=none;top=0;left=0;bottom=0;right=0;editable=1;overflow=hidden;" vertex="1" parent="_b2ubTzcU3wmrh2YWBbf-7">
          <mxGeometry width="30" height="30" as="geometry" />
        </mxCell>
        <mxCell id="_b2ubTzcU3wmrh2YWBbf-9" value="postAddressId" style="shape=partialRectangle;connectable=0;fillColor=none;top=0;left=0;bottom=0;right=0;align=left;spacingLeft=6;overflow=hidden;" vertex="1" parent="_b2ubTzcU3wmrh2YWBbf-7">
          <mxGeometry x="30" width="150" height="30" as="geometry" />
        </mxCell>
        <mxCell id="_b2ubTzcU3wmrh2YWBbf-64" value="processing" style="shape=table;startSize=30;container=1;collapsible=1;childLayout=tableLayout;fixedRows=1;rowLines=0;fontStyle=1;align=center;resizeLast=1;" vertex="1" parent="t-heXbu7Nx1hkAENzGRH-1">
          <mxGeometry x="662.5" y="580" width="275" height="100" as="geometry" />
        </mxCell>
        <mxCell id="_b2ubTzcU3wmrh2YWBbf-65" value="" style="shape=partialRectangle;collapsible=0;dropTarget=0;pointerEvents=0;fillColor=none;top=0;left=0;bottom=1;right=0;points=[[0,0.5],[1,0.5]];portConstraint=eastwest;" vertex="1" parent="_b2ubTzcU3wmrh2YWBbf-64">
          <mxGeometry y="30" width="275" height="30" as="geometry" />
        </mxCell>
        <mxCell id="_b2ubTzcU3wmrh2YWBbf-66" value="PK" style="shape=partialRectangle;connectable=0;fillColor=none;top=0;left=0;bottom=0;right=0;fontStyle=1;overflow=hidden;" vertex="1" parent="_b2ubTzcU3wmrh2YWBbf-65">
          <mxGeometry width="30" height="30" as="geometry" />
        </mxCell>
        <mxCell id="_b2ubTzcU3wmrh2YWBbf-67" value="processingId" style="shape=partialRectangle;connectable=0;fillColor=none;top=0;left=0;bottom=0;right=0;align=left;spacingLeft=6;fontStyle=5;overflow=hidden;" vertex="1" parent="_b2ubTzcU3wmrh2YWBbf-65">
          <mxGeometry x="30" width="245" height="30" as="geometry" />
        </mxCell>
        <mxCell id="_b2ubTzcU3wmrh2YWBbf-68" value="" style="shape=partialRectangle;collapsible=0;dropTarget=0;pointerEvents=0;fillColor=none;top=0;left=0;bottom=0;right=0;points=[[0,0.5],[1,0.5]];portConstraint=eastwest;" vertex="1" parent="_b2ubTzcU3wmrh2YWBbf-64">
          <mxGeometry y="60" width="275" height="30" as="geometry" />
        </mxCell>
        <mxCell id="_b2ubTzcU3wmrh2YWBbf-69" value="" style="shape=partialRectangle;connectable=0;fillColor=none;top=0;left=0;bottom=0;right=0;editable=1;overflow=hidden;" vertex="1" parent="_b2ubTzcU3wmrh2YWBbf-68">
          <mxGeometry width="30" height="30" as="geometry" />
        </mxCell>
        <mxCell id="_b2ubTzcU3wmrh2YWBbf-70" value="process_type (delivery, pickup)" style="shape=partialRectangle;connectable=0;fillColor=none;top=0;left=0;bottom=0;right=0;align=left;spacingLeft=6;overflow=hidden;" vertex="1" parent="_b2ubTzcU3wmrh2YWBbf-68">
          <mxGeometry x="30" width="245" height="30" as="geometry" />
        </mxCell>
        <mxCell id="GQxk08SNRr1d7-7JqX8W-0" value="Address" style="shape=table;startSize=30;container=1;collapsible=1;childLayout=tableLayout;fixedRows=1;rowLines=0;fontStyle=1;align=center;resizeLast=1;" vertex="1" parent="t-heXbu7Nx1hkAENzGRH-1">
          <mxGeometry x="710" y="-180" width="180" height="249.99999999999977" as="geometry" />
        </mxCell>
        <mxCell id="GQxk08SNRr1d7-7JqX8W-1" value="" style="shape=partialRectangle;collapsible=0;dropTarget=0;pointerEvents=0;fillColor=none;top=0;left=0;bottom=1;right=0;points=[[0,0.5],[1,0.5]];portConstraint=eastwest;" vertex="1" parent="GQxk08SNRr1d7-7JqX8W-0">
          <mxGeometry y="30" width="180" height="40" as="geometry" />
        </mxCell>
        <mxCell id="GQxk08SNRr1d7-7JqX8W-2" value="PK" style="shape=partialRectangle;connectable=0;fillColor=none;top=0;left=0;bottom=0;right=0;fontStyle=1;overflow=hidden;" vertex="1" parent="GQxk08SNRr1d7-7JqX8W-1">
          <mxGeometry width="30" height="40" as="geometry" />
        </mxCell>
        <mxCell id="GQxk08SNRr1d7-7JqX8W-3" value="AddressId" style="shape=partialRectangle;connectable=0;fillColor=none;top=0;left=0;bottom=0;right=0;align=left;spacingLeft=6;fontStyle=5;overflow=hidden;" vertex="1" parent="GQxk08SNRr1d7-7JqX8W-1">
          <mxGeometry x="30" width="150" height="40" as="geometry" />
        </mxCell>
        <mxCell id="GQxk08SNRr1d7-7JqX8W-4" value="" style="shape=partialRectangle;collapsible=0;dropTarget=0;pointerEvents=0;fillColor=none;top=0;left=0;bottom=0;right=0;points=[[0,0.5],[1,0.5]];portConstraint=eastwest;" vertex="1" parent="GQxk08SNRr1d7-7JqX8W-0">
          <mxGeometry y="70" width="180" height="20" as="geometry" />
        </mxCell>
        <mxCell id="GQxk08SNRr1d7-7JqX8W-5" value="" style="shape=partialRectangle;connectable=0;fillColor=none;top=0;left=0;bottom=0;right=0;editable=1;overflow=hidden;" vertex="1" parent="GQxk08SNRr1d7-7JqX8W-4">
          <mxGeometry width="30" height="20" as="geometry" />
        </mxCell>
        <mxCell id="GQxk08SNRr1d7-7JqX8W-6" value="first_name" style="shape=partialRectangle;connectable=0;fillColor=none;top=0;left=0;bottom=0;right=0;align=left;spacingLeft=6;overflow=hidden;" vertex="1" parent="GQxk08SNRr1d7-7JqX8W-4">
          <mxGeometry x="30" width="150" height="20" as="geometry" />
        </mxCell>
        <mxCell id="GQxk08SNRr1d7-7JqX8W-7" value="" style="shape=partialRectangle;collapsible=0;dropTarget=0;pointerEvents=0;fillColor=none;top=0;left=0;bottom=0;right=0;points=[[0,0.5],[1,0.5]];portConstraint=eastwest;" vertex="1" parent="GQxk08SNRr1d7-7JqX8W-0">
          <mxGeometry y="90" width="180" height="30" as="geometry" />
        </mxCell>
        <mxCell id="GQxk08SNRr1d7-7JqX8W-8" value="" style="shape=partialRectangle;connectable=0;fillColor=none;top=0;left=0;bottom=0;right=0;editable=1;overflow=hidden;" vertex="1" parent="GQxk08SNRr1d7-7JqX8W-7">
          <mxGeometry width="30" height="30" as="geometry" />
        </mxCell>
        <mxCell id="GQxk08SNRr1d7-7JqX8W-9" value="last_name" style="shape=partialRectangle;connectable=0;fillColor=none;top=0;left=0;bottom=0;right=0;align=left;spacingLeft=6;overflow=hidden;" vertex="1" parent="GQxk08SNRr1d7-7JqX8W-7">
          <mxGeometry x="30" width="150" height="30" as="geometry" />
        </mxCell>
        <mxCell id="GQxk08SNRr1d7-7JqX8W-10" value="" style="shape=partialRectangle;collapsible=0;dropTarget=0;pointerEvents=0;fillColor=none;top=0;left=0;bottom=0;right=0;points=[[0,0.5],[1,0.5]];portConstraint=eastwest;" vertex="1" parent="GQxk08SNRr1d7-7JqX8W-0">
          <mxGeometry y="120" width="180" height="30" as="geometry" />
        </mxCell>
        <mxCell id="GQxk08SNRr1d7-7JqX8W-11" value="" style="shape=partialRectangle;connectable=0;fillColor=none;top=0;left=0;bottom=0;right=0;editable=1;overflow=hidden;" vertex="1" parent="GQxk08SNRr1d7-7JqX8W-10">
          <mxGeometry width="30" height="30" as="geometry" />
        </mxCell>
        <mxCell id="GQxk08SNRr1d7-7JqX8W-12" value="house_number" style="shape=partialRectangle;connectable=0;fillColor=none;top=0;left=0;bottom=0;right=0;align=left;spacingLeft=6;overflow=hidden;" vertex="1" parent="GQxk08SNRr1d7-7JqX8W-10">
          <mxGeometry x="30" width="150" height="30" as="geometry" />
        </mxCell>
        <mxCell id="GQxk08SNRr1d7-7JqX8W-13" value="" style="shape=partialRectangle;collapsible=0;dropTarget=0;pointerEvents=0;fillColor=none;top=0;left=0;bottom=0;right=0;points=[[0,0.5],[1,0.5]];portConstraint=eastwest;" vertex="1" parent="GQxk08SNRr1d7-7JqX8W-0">
          <mxGeometry y="150" width="180" height="30" as="geometry" />
        </mxCell>
        <mxCell id="GQxk08SNRr1d7-7JqX8W-14" value="" style="shape=partialRectangle;connectable=0;fillColor=none;top=0;left=0;bottom=0;right=0;editable=1;overflow=hidden;" vertex="1" parent="GQxk08SNRr1d7-7JqX8W-13">
          <mxGeometry width="30" height="30" as="geometry" />
        </mxCell>
        <mxCell id="GQxk08SNRr1d7-7JqX8W-15" value="street" style="shape=partialRectangle;connectable=0;fillColor=none;top=0;left=0;bottom=0;right=0;align=left;spacingLeft=6;overflow=hidden;" vertex="1" parent="GQxk08SNRr1d7-7JqX8W-13">
          <mxGeometry x="30" width="150" height="30" as="geometry" />
        </mxCell>
        <mxCell id="GQxk08SNRr1d7-7JqX8W-16" value="" style="shape=partialRectangle;collapsible=0;dropTarget=0;pointerEvents=0;fillColor=none;top=0;left=0;bottom=0;right=0;points=[[0,0.5],[1,0.5]];portConstraint=eastwest;" vertex="1" parent="GQxk08SNRr1d7-7JqX8W-0">
          <mxGeometry y="180" width="180" height="30" as="geometry" />
        </mxCell>
        <mxCell id="GQxk08SNRr1d7-7JqX8W-17" value="" style="shape=partialRectangle;connectable=0;fillColor=none;top=0;left=0;bottom=0;right=0;editable=1;overflow=hidden;" vertex="1" parent="GQxk08SNRr1d7-7JqX8W-16">
          <mxGeometry width="30" height="30" as="geometry" />
        </mxCell>
        <mxCell id="GQxk08SNRr1d7-7JqX8W-18" value="city" style="shape=partialRectangle;connectable=0;fillColor=none;top=0;left=0;bottom=0;right=0;align=left;spacingLeft=6;overflow=hidden;" vertex="1" parent="GQxk08SNRr1d7-7JqX8W-16">
          <mxGeometry x="30" width="150" height="30" as="geometry" />
        </mxCell>
        <mxCell id="GQxk08SNRr1d7-7JqX8W-19" value="" style="shape=partialRectangle;collapsible=0;dropTarget=0;pointerEvents=0;fillColor=none;top=0;left=0;bottom=0;right=0;points=[[0,0.5],[1,0.5]];portConstraint=eastwest;" vertex="1" parent="GQxk08SNRr1d7-7JqX8W-0">
          <mxGeometry y="210" width="180" height="30" as="geometry" />
        </mxCell>
        <mxCell id="GQxk08SNRr1d7-7JqX8W-20" value="" style="shape=partialRectangle;connectable=0;fillColor=none;top=0;left=0;bottom=0;right=0;editable=1;overflow=hidden;" vertex="1" parent="GQxk08SNRr1d7-7JqX8W-19">
          <mxGeometry width="30" height="30" as="geometry" />
        </mxCell>
        <mxCell id="GQxk08SNRr1d7-7JqX8W-21" value="country" style="shape=partialRectangle;connectable=0;fillColor=none;top=0;left=0;bottom=0;right=0;align=left;spacingLeft=6;overflow=hidden;" vertex="1" parent="GQxk08SNRr1d7-7JqX8W-19">
          <mxGeometry x="30" width="150" height="30" as="geometry" />
        </mxCell>
        <mxCell id="GQxk08SNRr1d7-7JqX8W-22" value="sender" style="shape=table;startSize=30;container=1;collapsible=1;childLayout=tableLayout;fixedRows=1;rowLines=0;fontStyle=1;align=center;resizeLast=1;" vertex="1" parent="t-heXbu7Nx1hkAENzGRH-1">
          <mxGeometry x="400" y="-60" width="180" height="160" as="geometry" />
        </mxCell>
        <mxCell id="GQxk08SNRr1d7-7JqX8W-23" value="" style="shape=partialRectangle;collapsible=0;dropTarget=0;pointerEvents=0;fillColor=none;top=0;left=0;bottom=1;right=0;points=[[0,0.5],[1,0.5]];portConstraint=eastwest;" vertex="1" parent="GQxk08SNRr1d7-7JqX8W-22">
          <mxGeometry y="30" width="180" height="30" as="geometry" />
        </mxCell>
        <mxCell id="GQxk08SNRr1d7-7JqX8W-24" value="PK" style="shape=partialRectangle;connectable=0;fillColor=none;top=0;left=0;bottom=0;right=0;fontStyle=1;overflow=hidden;" vertex="1" parent="GQxk08SNRr1d7-7JqX8W-23">
          <mxGeometry width="30" height="30" as="geometry" />
        </mxCell>
        <mxCell id="GQxk08SNRr1d7-7JqX8W-25" value="senderId" style="shape=partialRectangle;connectable=0;fillColor=none;top=0;left=0;bottom=0;right=0;align=left;spacingLeft=6;fontStyle=5;overflow=hidden;" vertex="1" parent="GQxk08SNRr1d7-7JqX8W-23">
          <mxGeometry x="30" width="150" height="30" as="geometry" />
        </mxCell>
        <mxCell id="GQxk08SNRr1d7-7JqX8W-26" value="" style="shape=partialRectangle;collapsible=0;dropTarget=0;pointerEvents=0;fillColor=none;top=0;left=0;bottom=0;right=0;points=[[0,0.5],[1,0.5]];portConstraint=eastwest;" vertex="1" parent="GQxk08SNRr1d7-7JqX8W-22">
          <mxGeometry y="60" width="180" height="30" as="geometry" />
        </mxCell>
        <mxCell id="GQxk08SNRr1d7-7JqX8W-27" value="" style="shape=partialRectangle;connectable=0;fillColor=none;top=0;left=0;bottom=0;right=0;editable=1;overflow=hidden;" vertex="1" parent="GQxk08SNRr1d7-7JqX8W-26">
          <mxGeometry width="30" height="30" as="geometry" />
        </mxCell>
        <mxCell id="GQxk08SNRr1d7-7JqX8W-28" value="name" style="shape=partialRectangle;connectable=0;fillColor=none;top=0;left=0;bottom=0;right=0;align=left;spacingLeft=6;overflow=hidden;" vertex="1" parent="GQxk08SNRr1d7-7JqX8W-26">
          <mxGeometry x="30" width="150" height="30" as="geometry" />
        </mxCell>
        <mxCell id="GQxk08SNRr1d7-7JqX8W-29" value="" style="shape=partialRectangle;collapsible=0;dropTarget=0;pointerEvents=0;fillColor=none;top=0;left=0;bottom=0;right=0;points=[[0,0.5],[1,0.5]];portConstraint=eastwest;" vertex="1" parent="GQxk08SNRr1d7-7JqX8W-22">
          <mxGeometry y="90" width="180" height="30" as="geometry" />
        </mxCell>
        <mxCell id="GQxk08SNRr1d7-7JqX8W-30" value="FK" style="shape=partialRectangle;connectable=0;fillColor=none;top=0;left=0;bottom=0;right=0;editable=1;overflow=hidden;" vertex="1" parent="GQxk08SNRr1d7-7JqX8W-29">
          <mxGeometry width="30" height="30" as="geometry" />
        </mxCell>
        <mxCell id="GQxk08SNRr1d7-7JqX8W-31" value="addressid" style="shape=partialRectangle;connectable=0;fillColor=none;top=0;left=0;bottom=0;right=0;align=left;spacingLeft=6;overflow=hidden;" vertex="1" parent="GQxk08SNRr1d7-7JqX8W-29">
          <mxGeometry x="30" width="150" height="30" as="geometry" />
        </mxCell>
        <mxCell id="GQxk08SNRr1d7-7JqX8W-32" value="" style="shape=partialRectangle;collapsible=0;dropTarget=0;pointerEvents=0;fillColor=none;top=0;left=0;bottom=0;right=0;points=[[0,0.5],[1,0.5]];portConstraint=eastwest;" vertex="1" parent="GQxk08SNRr1d7-7JqX8W-22">
          <mxGeometry y="120" width="180" height="30" as="geometry" />
        </mxCell>
        <mxCell id="GQxk08SNRr1d7-7JqX8W-33" value="FK" style="shape=partialRectangle;connectable=0;fillColor=none;top=0;left=0;bottom=0;right=0;editable=1;overflow=hidden;" vertex="1" parent="GQxk08SNRr1d7-7JqX8W-32">
          <mxGeometry width="30" height="30" as="geometry" />
        </mxCell>
        <mxCell id="GQxk08SNRr1d7-7JqX8W-34" value="packageId" style="shape=partialRectangle;connectable=0;fillColor=none;top=0;left=0;bottom=0;right=0;align=left;spacingLeft=6;overflow=hidden;" vertex="1" parent="GQxk08SNRr1d7-7JqX8W-32">
          <mxGeometry x="30" width="150" height="30" as="geometry" />
        </mxCell>
        <mxCell id="GQxk08SNRr1d7-7JqX8W-41" value="Package" style="shape=table;startSize=30;container=1;collapsible=1;childLayout=tableLayout;fixedRows=1;rowLines=0;fontStyle=1;align=center;resizeLast=1;" vertex="1" parent="t-heXbu7Nx1hkAENzGRH-1">
          <mxGeometry x="710" y="160" width="180" height="350" as="geometry" />
        </mxCell>
        <mxCell id="GQxk08SNRr1d7-7JqX8W-42" value="" style="shape=partialRectangle;collapsible=0;dropTarget=0;pointerEvents=0;fillColor=none;top=0;left=0;bottom=1;right=0;points=[[0,0.5],[1,0.5]];portConstraint=eastwest;" vertex="1" parent="GQxk08SNRr1d7-7JqX8W-41">
          <mxGeometry y="30" width="180" height="40" as="geometry" />
        </mxCell>
        <mxCell id="GQxk08SNRr1d7-7JqX8W-43" value="PK" style="shape=partialRectangle;connectable=0;fillColor=none;top=0;left=0;bottom=0;right=0;fontStyle=1;overflow=hidden;" vertex="1" parent="GQxk08SNRr1d7-7JqX8W-42">
          <mxGeometry width="30" height="40" as="geometry" />
        </mxCell>
        <mxCell id="GQxk08SNRr1d7-7JqX8W-44" value="PackageId" style="shape=partialRectangle;connectable=0;fillColor=none;top=0;left=0;bottom=0;right=0;align=left;spacingLeft=6;fontStyle=5;overflow=hidden;" vertex="1" parent="GQxk08SNRr1d7-7JqX8W-42">
          <mxGeometry x="30" width="150" height="40" as="geometry" />
        </mxCell>
        <mxCell id="GQxk08SNRr1d7-7JqX8W-45" value="" style="shape=partialRectangle;collapsible=0;dropTarget=0;pointerEvents=0;fillColor=none;top=0;left=0;bottom=0;right=0;points=[[0,0.5],[1,0.5]];portConstraint=eastwest;" vertex="1" parent="GQxk08SNRr1d7-7JqX8W-41">
          <mxGeometry y="70" width="180" height="30" as="geometry" />
        </mxCell>
        <mxCell id="GQxk08SNRr1d7-7JqX8W-46" value="" style="shape=partialRectangle;connectable=0;fillColor=none;top=0;left=0;bottom=0;right=0;editable=1;overflow=hidden;" vertex="1" parent="GQxk08SNRr1d7-7JqX8W-45">
          <mxGeometry width="30" height="30" as="geometry" />
        </mxCell>
        <mxCell id="GQxk08SNRr1d7-7JqX8W-47" value="type" style="shape=partialRectangle;connectable=0;fillColor=none;top=0;left=0;bottom=0;right=0;align=left;spacingLeft=6;overflow=hidden;" vertex="1" parent="GQxk08SNRr1d7-7JqX8W-45">
          <mxGeometry x="30" width="150" height="30" as="geometry" />
        </mxCell>
        <mxCell id="GQxk08SNRr1d7-7JqX8W-48" value="" style="shape=partialRectangle;collapsible=0;dropTarget=0;pointerEvents=0;fillColor=none;top=0;left=0;bottom=0;right=0;points=[[0,0.5],[1,0.5]];portConstraint=eastwest;" vertex="1" parent="GQxk08SNRr1d7-7JqX8W-41">
          <mxGeometry y="100" width="180" height="30" as="geometry" />
        </mxCell>
        <mxCell id="GQxk08SNRr1d7-7JqX8W-49" value="" style="shape=partialRectangle;connectable=0;fillColor=none;top=0;left=0;bottom=0;right=0;editable=1;overflow=hidden;" vertex="1" parent="GQxk08SNRr1d7-7JqX8W-48">
          <mxGeometry width="30" height="30" as="geometry" />
        </mxCell>
        <mxCell id="GQxk08SNRr1d7-7JqX8W-50" value="date_sent" style="shape=partialRectangle;connectable=0;fillColor=none;top=0;left=0;bottom=0;right=0;align=left;spacingLeft=6;overflow=hidden;" vertex="1" parent="GQxk08SNRr1d7-7JqX8W-48">
          <mxGeometry x="30" width="150" height="30" as="geometry" />
        </mxCell>
        <mxCell id="GQxk08SNRr1d7-7JqX8W-51" value="" style="shape=partialRectangle;collapsible=0;dropTarget=0;pointerEvents=0;fillColor=none;top=0;left=0;bottom=0;right=0;points=[[0,0.5],[1,0.5]];portConstraint=eastwest;" vertex="1" parent="GQxk08SNRr1d7-7JqX8W-41">
          <mxGeometry y="130" width="180" height="30" as="geometry" />
        </mxCell>
        <mxCell id="GQxk08SNRr1d7-7JqX8W-52" value="" style="shape=partialRectangle;connectable=0;fillColor=none;top=0;left=0;bottom=0;right=0;editable=1;overflow=hidden;" vertex="1" parent="GQxk08SNRr1d7-7JqX8W-51">
          <mxGeometry width="30" height="30" as="geometry" />
        </mxCell>
        <mxCell id="GQxk08SNRr1d7-7JqX8W-53" value="date_recieved" style="shape=partialRectangle;connectable=0;fillColor=none;top=0;left=0;bottom=0;right=0;align=left;spacingLeft=6;overflow=hidden;" vertex="1" parent="GQxk08SNRr1d7-7JqX8W-51">
          <mxGeometry x="30" width="150" height="30" as="geometry" />
        </mxCell>
        <mxCell id="GQxk08SNRr1d7-7JqX8W-54" value="" style="shape=partialRectangle;collapsible=0;dropTarget=0;pointerEvents=0;fillColor=none;top=0;left=0;bottom=0;right=0;points=[[0,0.5],[1,0.5]];portConstraint=eastwest;" vertex="1" parent="GQxk08SNRr1d7-7JqX8W-41">
          <mxGeometry y="160" width="180" height="30" as="geometry" />
        </mxCell>
        <mxCell id="GQxk08SNRr1d7-7JqX8W-55" value="" style="shape=partialRectangle;connectable=0;fillColor=none;top=0;left=0;bottom=0;right=0;editable=1;overflow=hidden;" vertex="1" parent="GQxk08SNRr1d7-7JqX8W-54">
          <mxGeometry width="30" height="30" as="geometry" />
        </mxCell>
        <mxCell id="GQxk08SNRr1d7-7JqX8W-56" value="date_dropOff" style="shape=partialRectangle;connectable=0;fillColor=none;top=0;left=0;bottom=0;right=0;align=left;spacingLeft=6;overflow=hidden;" vertex="1" parent="GQxk08SNRr1d7-7JqX8W-54">
          <mxGeometry x="30" width="150" height="30" as="geometry" />
        </mxCell>
        <mxCell id="GQxk08SNRr1d7-7JqX8W-57" value="" style="shape=partialRectangle;collapsible=0;dropTarget=0;pointerEvents=0;fillColor=none;top=0;left=0;bottom=0;right=0;points=[[0,0.5],[1,0.5]];portConstraint=eastwest;" vertex="1" parent="GQxk08SNRr1d7-7JqX8W-41">
          <mxGeometry y="190" width="180" height="30" as="geometry" />
        </mxCell>
        <mxCell id="GQxk08SNRr1d7-7JqX8W-58" value="FK" style="shape=partialRectangle;connectable=0;fillColor=none;top=0;left=0;bottom=0;right=0;editable=1;overflow=hidden;" vertex="1" parent="GQxk08SNRr1d7-7JqX8W-57">
          <mxGeometry width="30" height="30" as="geometry" />
        </mxCell>
        <mxCell id="GQxk08SNRr1d7-7JqX8W-59" value="recipientId" style="shape=partialRectangle;connectable=0;fillColor=none;top=0;left=0;bottom=0;right=0;align=left;spacingLeft=6;overflow=hidden;" vertex="1" parent="GQxk08SNRr1d7-7JqX8W-57">
          <mxGeometry x="30" width="150" height="30" as="geometry" />
        </mxCell>
        <mxCell id="GQxk08SNRr1d7-7JqX8W-60" value="" style="shape=partialRectangle;collapsible=0;dropTarget=0;pointerEvents=0;fillColor=none;top=0;left=0;bottom=0;right=0;points=[[0,0.5],[1,0.5]];portConstraint=eastwest;" vertex="1" parent="GQxk08SNRr1d7-7JqX8W-41">
          <mxGeometry y="220" width="180" height="30" as="geometry" />
        </mxCell>
        <mxCell id="GQxk08SNRr1d7-7JqX8W-61" value="FK" style="shape=partialRectangle;connectable=0;fillColor=none;top=0;left=0;bottom=0;right=0;editable=1;overflow=hidden;" vertex="1" parent="GQxk08SNRr1d7-7JqX8W-60">
          <mxGeometry width="30" height="30" as="geometry" />
        </mxCell>
        <mxCell id="GQxk08SNRr1d7-7JqX8W-62" value="senderId" style="shape=partialRectangle;connectable=0;fillColor=none;top=0;left=0;bottom=0;right=0;align=left;spacingLeft=6;overflow=hidden;" vertex="1" parent="GQxk08SNRr1d7-7JqX8W-60">
          <mxGeometry x="30" width="150" height="30" as="geometry" />
        </mxCell>
        <mxCell id="GQxk08SNRr1d7-7JqX8W-63" value="" style="shape=partialRectangle;collapsible=0;dropTarget=0;pointerEvents=0;fillColor=none;top=0;left=0;bottom=0;right=0;points=[[0,0.5],[1,0.5]];portConstraint=eastwest;" vertex="1" parent="GQxk08SNRr1d7-7JqX8W-41">
          <mxGeometry y="250" width="180" height="30" as="geometry" />
        </mxCell>
        <mxCell id="GQxk08SNRr1d7-7JqX8W-64" value="FK" style="shape=partialRectangle;connectable=0;fillColor=none;top=0;left=0;bottom=0;right=0;editable=1;overflow=hidden;" vertex="1" parent="GQxk08SNRr1d7-7JqX8W-63">
          <mxGeometry width="30" height="30" as="geometry" />
        </mxCell>
        <mxCell id="GQxk08SNRr1d7-7JqX8W-65" value="startId" style="shape=partialRectangle;connectable=0;fillColor=none;top=0;left=0;bottom=0;right=0;align=left;spacingLeft=6;overflow=hidden;" vertex="1" parent="GQxk08SNRr1d7-7JqX8W-63">
          <mxGeometry x="30" width="150" height="30" as="geometry" />
        </mxCell>
        <mxCell id="GQxk08SNRr1d7-7JqX8W-99" value="" style="shape=partialRectangle;collapsible=0;dropTarget=0;pointerEvents=0;fillColor=none;top=0;left=0;bottom=0;right=0;points=[[0,0.5],[1,0.5]];portConstraint=eastwest;" vertex="1" parent="GQxk08SNRr1d7-7JqX8W-41">
          <mxGeometry y="280" width="180" height="30" as="geometry" />
        </mxCell>
        <mxCell id="GQxk08SNRr1d7-7JqX8W-100" value="FK" style="shape=partialRectangle;connectable=0;fillColor=none;top=0;left=0;bottom=0;right=0;editable=1;overflow=hidden;" vertex="1" parent="GQxk08SNRr1d7-7JqX8W-99">
          <mxGeometry width="30" height="30" as="geometry" />
        </mxCell>
        <mxCell id="GQxk08SNRr1d7-7JqX8W-101" value="endId" style="shape=partialRectangle;connectable=0;fillColor=none;top=0;left=0;bottom=0;right=0;align=left;spacingLeft=6;overflow=hidden;" vertex="1" parent="GQxk08SNRr1d7-7JqX8W-99">
          <mxGeometry x="30" width="150" height="30" as="geometry" />
        </mxCell>
        <mxCell id="GQxk08SNRr1d7-7JqX8W-119" value="" style="shape=partialRectangle;collapsible=0;dropTarget=0;pointerEvents=0;fillColor=none;top=0;left=0;bottom=0;right=0;points=[[0,0.5],[1,0.5]];portConstraint=eastwest;" vertex="1" parent="GQxk08SNRr1d7-7JqX8W-41">
          <mxGeometry y="310" width="180" height="30" as="geometry" />
        </mxCell>
        <mxCell id="GQxk08SNRr1d7-7JqX8W-120" value="FK" style="shape=partialRectangle;connectable=0;fillColor=none;top=0;left=0;bottom=0;right=0;editable=1;overflow=hidden;" vertex="1" parent="GQxk08SNRr1d7-7JqX8W-119">
          <mxGeometry width="30" height="30" as="geometry" />
        </mxCell>
        <mxCell id="GQxk08SNRr1d7-7JqX8W-121" value="processingId" style="shape=partialRectangle;connectable=0;fillColor=none;top=0;left=0;bottom=0;right=0;align=left;spacingLeft=6;overflow=hidden;" vertex="1" parent="GQxk08SNRr1d7-7JqX8W-119">
          <mxGeometry x="30" width="150" height="30" as="geometry" />
        </mxCell>
        <mxCell id="GQxk08SNRr1d7-7JqX8W-70" value="" style="endArrow=none;html=1;rounded=0;exitX=0;exitY=0.5;exitDx=0;exitDy=0;entryX=0;entryY=0.5;entryDx=0;entryDy=0;" edge="1" parent="t-heXbu7Nx1hkAENzGRH-1" source="GQxk08SNRr1d7-7JqX8W-1" target="GQxk08SNRr1d7-7JqX8W-29">
          <mxGeometry relative="1" as="geometry">
            <mxPoint x="730" y="260" as="sourcePoint" />
            <mxPoint x="890" y="260" as="targetPoint" />
            <Array as="points">
              <mxPoint x="360" y="-130" />
              <mxPoint x="360" y="45" />
            </Array>
          </mxGeometry>
        </mxCell>
        <mxCell id="GQxk08SNRr1d7-7JqX8W-82" value="endingPost" style="shape=table;startSize=30;container=1;collapsible=1;childLayout=tableLayout;fixedRows=1;rowLines=0;fontStyle=1;align=center;resizeLast=1;" vertex="1" parent="t-heXbu7Nx1hkAENzGRH-1">
          <mxGeometry x="1110" y="140" width="180" height="130" as="geometry" />
        </mxCell>
        <mxCell id="GQxk08SNRr1d7-7JqX8W-83" value="" style="shape=partialRectangle;collapsible=0;dropTarget=0;pointerEvents=0;fillColor=none;top=0;left=0;bottom=1;right=0;points=[[0,0.5],[1,0.5]];portConstraint=eastwest;" vertex="1" parent="GQxk08SNRr1d7-7JqX8W-82">
          <mxGeometry y="30" width="180" height="30" as="geometry" />
        </mxCell>
        <mxCell id="GQxk08SNRr1d7-7JqX8W-84" value="PK" style="shape=partialRectangle;connectable=0;fillColor=none;top=0;left=0;bottom=0;right=0;fontStyle=1;overflow=hidden;" vertex="1" parent="GQxk08SNRr1d7-7JqX8W-83">
          <mxGeometry width="30" height="30" as="geometry" />
        </mxCell>
        <mxCell id="GQxk08SNRr1d7-7JqX8W-85" value="endId" style="shape=partialRectangle;connectable=0;fillColor=none;top=0;left=0;bottom=0;right=0;align=left;spacingLeft=6;fontStyle=5;overflow=hidden;" vertex="1" parent="GQxk08SNRr1d7-7JqX8W-83">
          <mxGeometry x="30" width="150" height="30" as="geometry" />
        </mxCell>
        <mxCell id="GQxk08SNRr1d7-7JqX8W-86" value="" style="shape=partialRectangle;collapsible=0;dropTarget=0;pointerEvents=0;fillColor=none;top=0;left=0;bottom=0;right=0;points=[[0,0.5],[1,0.5]];portConstraint=eastwest;" vertex="1" parent="GQxk08SNRr1d7-7JqX8W-82">
          <mxGeometry y="60" width="180" height="30" as="geometry" />
        </mxCell>
        <mxCell id="GQxk08SNRr1d7-7JqX8W-87" value="" style="shape=partialRectangle;connectable=0;fillColor=none;top=0;left=0;bottom=0;right=0;editable=1;overflow=hidden;" vertex="1" parent="GQxk08SNRr1d7-7JqX8W-86">
          <mxGeometry width="30" height="30" as="geometry" />
        </mxCell>
        <mxCell id="GQxk08SNRr1d7-7JqX8W-88" value="Name" style="shape=partialRectangle;connectable=0;fillColor=none;top=0;left=0;bottom=0;right=0;align=left;spacingLeft=6;overflow=hidden;" vertex="1" parent="GQxk08SNRr1d7-7JqX8W-86">
          <mxGeometry x="30" width="150" height="30" as="geometry" />
        </mxCell>
        <mxCell id="GQxk08SNRr1d7-7JqX8W-89" value="" style="shape=partialRectangle;collapsible=0;dropTarget=0;pointerEvents=0;fillColor=none;top=0;left=0;bottom=0;right=0;points=[[0,0.5],[1,0.5]];portConstraint=eastwest;" vertex="1" parent="GQxk08SNRr1d7-7JqX8W-82">
          <mxGeometry y="90" width="180" height="30" as="geometry" />
        </mxCell>
        <mxCell id="GQxk08SNRr1d7-7JqX8W-90" value="FK" style="shape=partialRectangle;connectable=0;fillColor=none;top=0;left=0;bottom=0;right=0;editable=1;overflow=hidden;" vertex="1" parent="GQxk08SNRr1d7-7JqX8W-89">
          <mxGeometry width="30" height="30" as="geometry" />
        </mxCell>
        <mxCell id="GQxk08SNRr1d7-7JqX8W-91" value="PostAddressId" style="shape=partialRectangle;connectable=0;fillColor=none;top=0;left=0;bottom=0;right=0;align=left;spacingLeft=6;overflow=hidden;" vertex="1" parent="GQxk08SNRr1d7-7JqX8W-89">
          <mxGeometry x="30" width="150" height="30" as="geometry" />
        </mxCell>
        <mxCell id="GQxk08SNRr1d7-7JqX8W-102" value="" style="endArrow=none;html=1;rounded=0;exitX=1;exitY=0.5;exitDx=0;exitDy=0;entryX=1;entryY=0.5;entryDx=0;entryDy=0;" edge="1" parent="t-heXbu7Nx1hkAENzGRH-1" source="GQxk08SNRr1d7-7JqX8W-1" target="t-heXbu7Nx1hkAENzGRH-38">
          <mxGeometry relative="1" as="geometry">
            <mxPoint x="840" y="140" as="sourcePoint" />
            <mxPoint x="1000" y="140" as="targetPoint" />
            <Array as="points">
              <mxPoint x="1340" y="-130" />
              <mxPoint x="1340" y="35" />
            </Array>
          </mxGeometry>
        </mxCell>
        <mxCell id="GQxk08SNRr1d7-7JqX8W-108" value="" style="endArrow=none;html=1;rounded=0;exitX=1;exitY=0.5;exitDx=0;exitDy=0;entryX=0;entryY=0.5;entryDx=0;entryDy=0;" edge="1" parent="t-heXbu7Nx1hkAENzGRH-1" source="_b2ubTzcU3wmrh2YWBbf-1" target="GQxk08SNRr1d7-7JqX8W-63">
          <mxGeometry relative="1" as="geometry">
            <mxPoint x="700" y="230" as="sourcePoint" />
            <mxPoint x="860" y="230" as="targetPoint" />
            <Array as="points">
              <mxPoint x="600" y="195" />
              <mxPoint x="600" y="425" />
            </Array>
          </mxGeometry>
        </mxCell>
        <mxCell id="GQxk08SNRr1d7-7JqX8W-110" value="" style="endArrow=none;html=1;rounded=0;exitX=1;exitY=0.5;exitDx=0;exitDy=0;entryX=0;entryY=0.5;entryDx=0;entryDy=0;" edge="1" parent="t-heXbu7Nx1hkAENzGRH-1" source="GQxk08SNRr1d7-7JqX8W-23" target="GQxk08SNRr1d7-7JqX8W-60">
          <mxGeometry relative="1" as="geometry">
            <mxPoint x="700" y="230" as="sourcePoint" />
            <mxPoint x="860" y="230" as="targetPoint" />
            <Array as="points">
              <mxPoint x="660" y="-15" />
              <mxPoint x="660" y="395" />
            </Array>
          </mxGeometry>
        </mxCell>
        <mxCell id="GQxk08SNRr1d7-7JqX8W-111" value="" style="endArrow=none;html=1;rounded=0;exitX=1;exitY=0.5;exitDx=0;exitDy=0;entryX=0;entryY=0.5;entryDx=0;entryDy=0;" edge="1" parent="t-heXbu7Nx1hkAENzGRH-1" source="GQxk08SNRr1d7-7JqX8W-57" target="t-heXbu7Nx1hkAENzGRH-32">
          <mxGeometry relative="1" as="geometry">
            <mxPoint x="810" y="230" as="sourcePoint" />
            <mxPoint x="970" y="230" as="targetPoint" />
            <Array as="points">
              <mxPoint x="980" y="365" />
              <mxPoint x="980" y="-15" />
            </Array>
          </mxGeometry>
        </mxCell>
        <mxCell id="GQxk08SNRr1d7-7JqX8W-112" value="" style="endArrow=none;html=1;rounded=0;exitX=1;exitY=0.5;exitDx=0;exitDy=0;entryX=0;entryY=0.5;entryDx=0;entryDy=0;" edge="1" parent="t-heXbu7Nx1hkAENzGRH-1" source="GQxk08SNRr1d7-7JqX8W-99" target="GQxk08SNRr1d7-7JqX8W-83">
          <mxGeometry relative="1" as="geometry">
            <mxPoint x="810" y="230" as="sourcePoint" />
            <mxPoint x="970" y="230" as="targetPoint" />
            <Array as="points">
              <mxPoint x="1040" y="455" />
              <mxPoint x="1040" y="185" />
            </Array>
          </mxGeometry>
        </mxCell>
        <mxCell id="GQxk08SNRr1d7-7JqX8W-125" value="" style="endArrow=none;html=1;rounded=0;entryX=0;entryY=0.5;entryDx=0;entryDy=0;exitX=0;exitY=0.5;exitDx=0;exitDy=0;" edge="1" parent="t-heXbu7Nx1hkAENzGRH-1" source="GQxk08SNRr1d7-7JqX8W-119" target="_b2ubTzcU3wmrh2YWBbf-65">
          <mxGeometry relative="1" as="geometry">
            <mxPoint x="770" y="290" as="sourcePoint" />
            <mxPoint x="930" y="290" as="targetPoint" />
            <Array as="points">
              <mxPoint x="630" y="485" />
              <mxPoint x="630" y="625" />
            </Array>
          </mxGeometry>
        </mxCell>
        <mxCell id="LwdN2rzJdJDRxwPpojT3-25" value="PostAddress" style="shape=table;startSize=30;container=1;collapsible=1;childLayout=tableLayout;fixedRows=1;rowLines=0;fontStyle=1;align=center;resizeLast=1;" vertex="1" parent="t-heXbu7Nx1hkAENzGRH-1">
          <mxGeometry x="720" y="720" width="180" height="199.99999999999977" as="geometry" />
        </mxCell>
        <mxCell id="LwdN2rzJdJDRxwPpojT3-26" value="" style="shape=partialRectangle;collapsible=0;dropTarget=0;pointerEvents=0;fillColor=none;top=0;left=0;bottom=1;right=0;points=[[0,0.5],[1,0.5]];portConstraint=eastwest;" vertex="1" parent="LwdN2rzJdJDRxwPpojT3-25">
          <mxGeometry y="30" width="180" height="40" as="geometry" />
        </mxCell>
        <mxCell id="LwdN2rzJdJDRxwPpojT3-27" value="PK" style="shape=partialRectangle;connectable=0;fillColor=none;top=0;left=0;bottom=0;right=0;fontStyle=1;overflow=hidden;" vertex="1" parent="LwdN2rzJdJDRxwPpojT3-26">
          <mxGeometry width="30" height="40" as="geometry" />
        </mxCell>
        <mxCell id="LwdN2rzJdJDRxwPpojT3-28" value="PostAddressId" style="shape=partialRectangle;connectable=0;fillColor=none;top=0;left=0;bottom=0;right=0;align=left;spacingLeft=6;fontStyle=5;overflow=hidden;" vertex="1" parent="LwdN2rzJdJDRxwPpojT3-26">
          <mxGeometry x="30" width="150" height="40" as="geometry" />
        </mxCell>
        <mxCell id="LwdN2rzJdJDRxwPpojT3-35" value="" style="shape=partialRectangle;collapsible=0;dropTarget=0;pointerEvents=0;fillColor=none;top=0;left=0;bottom=0;right=0;points=[[0,0.5],[1,0.5]];portConstraint=eastwest;" vertex="1" parent="LwdN2rzJdJDRxwPpojT3-25">
          <mxGeometry y="70" width="180" height="30" as="geometry" />
        </mxCell>
        <mxCell id="LwdN2rzJdJDRxwPpojT3-36" value="" style="shape=partialRectangle;connectable=0;fillColor=none;top=0;left=0;bottom=0;right=0;editable=1;overflow=hidden;" vertex="1" parent="LwdN2rzJdJDRxwPpojT3-35">
          <mxGeometry width="30" height="30" as="geometry" />
        </mxCell>
        <mxCell id="LwdN2rzJdJDRxwPpojT3-37" value="number" style="shape=partialRectangle;connectable=0;fillColor=none;top=0;left=0;bottom=0;right=0;align=left;spacingLeft=6;overflow=hidden;" vertex="1" parent="LwdN2rzJdJDRxwPpojT3-35">
          <mxGeometry x="30" width="150" height="30" as="geometry" />
        </mxCell>
        <mxCell id="LwdN2rzJdJDRxwPpojT3-38" value="" style="shape=partialRectangle;collapsible=0;dropTarget=0;pointerEvents=0;fillColor=none;top=0;left=0;bottom=0;right=0;points=[[0,0.5],[1,0.5]];portConstraint=eastwest;" vertex="1" parent="LwdN2rzJdJDRxwPpojT3-25">
          <mxGeometry y="100" width="180" height="30" as="geometry" />
        </mxCell>
        <mxCell id="LwdN2rzJdJDRxwPpojT3-39" value="" style="shape=partialRectangle;connectable=0;fillColor=none;top=0;left=0;bottom=0;right=0;editable=1;overflow=hidden;" vertex="1" parent="LwdN2rzJdJDRxwPpojT3-38">
          <mxGeometry width="30" height="30" as="geometry" />
        </mxCell>
        <mxCell id="LwdN2rzJdJDRxwPpojT3-40" value="street" style="shape=partialRectangle;connectable=0;fillColor=none;top=0;left=0;bottom=0;right=0;align=left;spacingLeft=6;overflow=hidden;" vertex="1" parent="LwdN2rzJdJDRxwPpojT3-38">
          <mxGeometry x="30" width="150" height="30" as="geometry" />
        </mxCell>
        <mxCell id="LwdN2rzJdJDRxwPpojT3-41" value="" style="shape=partialRectangle;collapsible=0;dropTarget=0;pointerEvents=0;fillColor=none;top=0;left=0;bottom=0;right=0;points=[[0,0.5],[1,0.5]];portConstraint=eastwest;" vertex="1" parent="LwdN2rzJdJDRxwPpojT3-25">
          <mxGeometry y="130" width="180" height="30" as="geometry" />
        </mxCell>
        <mxCell id="LwdN2rzJdJDRxwPpojT3-42" value="" style="shape=partialRectangle;connectable=0;fillColor=none;top=0;left=0;bottom=0;right=0;editable=1;overflow=hidden;" vertex="1" parent="LwdN2rzJdJDRxwPpojT3-41">
          <mxGeometry width="30" height="30" as="geometry" />
        </mxCell>
        <mxCell id="LwdN2rzJdJDRxwPpojT3-43" value="city" style="shape=partialRectangle;connectable=0;fillColor=none;top=0;left=0;bottom=0;right=0;align=left;spacingLeft=6;overflow=hidden;" vertex="1" parent="LwdN2rzJdJDRxwPpojT3-41">
          <mxGeometry x="30" width="150" height="30" as="geometry" />
        </mxCell>
        <mxCell id="LwdN2rzJdJDRxwPpojT3-44" value="" style="shape=partialRectangle;collapsible=0;dropTarget=0;pointerEvents=0;fillColor=none;top=0;left=0;bottom=0;right=0;points=[[0,0.5],[1,0.5]];portConstraint=eastwest;" vertex="1" parent="LwdN2rzJdJDRxwPpojT3-25">
          <mxGeometry y="160" width="180" height="30" as="geometry" />
        </mxCell>
        <mxCell id="LwdN2rzJdJDRxwPpojT3-45" value="" style="shape=partialRectangle;connectable=0;fillColor=none;top=0;left=0;bottom=0;right=0;editable=1;overflow=hidden;" vertex="1" parent="LwdN2rzJdJDRxwPpojT3-44">
          <mxGeometry width="30" height="30" as="geometry" />
        </mxCell>
        <mxCell id="LwdN2rzJdJDRxwPpojT3-46" value="country" style="shape=partialRectangle;connectable=0;fillColor=none;top=0;left=0;bottom=0;right=0;align=left;spacingLeft=6;overflow=hidden;" vertex="1" parent="LwdN2rzJdJDRxwPpojT3-44">
          <mxGeometry x="30" width="150" height="30" as="geometry" />
        </mxCell>
        <mxCell id="LwdN2rzJdJDRxwPpojT3-50" value="" style="endArrow=none;html=1;rounded=0;entryX=0;entryY=0.5;entryDx=0;entryDy=0;exitX=0;exitY=0.5;exitDx=0;exitDy=0;" edge="1" parent="t-heXbu7Nx1hkAENzGRH-1" source="LwdN2rzJdJDRxwPpojT3-26" target="_b2ubTzcU3wmrh2YWBbf-7">
          <mxGeometry relative="1" as="geometry">
            <mxPoint x="790" y="510" as="sourcePoint" />
            <mxPoint x="950" y="510" as="targetPoint" />
            <Array as="points">
              <mxPoint x="240" y="770" />
              <mxPoint x="240" y="255" />
            </Array>
          </mxGeometry>
        </mxCell>
        <mxCell id="LwdN2rzJdJDRxwPpojT3-51" value="" style="endArrow=none;html=1;rounded=0;entryX=1;entryY=0.5;entryDx=0;entryDy=0;exitX=1;exitY=0.5;exitDx=0;exitDy=0;" edge="1" parent="t-heXbu7Nx1hkAENzGRH-1" source="LwdN2rzJdJDRxwPpojT3-26" target="GQxk08SNRr1d7-7JqX8W-89">
          <mxGeometry relative="1" as="geometry">
            <mxPoint x="790" y="510" as="sourcePoint" />
            <mxPoint x="950" y="510" as="targetPoint" />
            <Array as="points">
              <mxPoint x="1440" y="770" />
              <mxPoint x="1440" y="245" />
            </Array>
          </mxGeometry>
        </mxCell>
        <mxCell id="LwdN2rzJdJDRxwPpojT3-52" value="" style="endArrow=none;html=1;rounded=0;exitX=1;exitY=0.5;exitDx=0;exitDy=0;entryX=0;entryY=0.5;entryDx=0;entryDy=0;" edge="1" parent="t-heXbu7Nx1hkAENzGRH-1" source="GQxk08SNRr1d7-7JqX8W-32" target="GQxk08SNRr1d7-7JqX8W-42">
          <mxGeometry relative="1" as="geometry">
            <mxPoint x="700" y="180" as="sourcePoint" />
            <mxPoint x="860" y="180" as="targetPoint" />
            <Array as="points">
              <mxPoint x="690" y="75" />
              <mxPoint x="690" y="210" />
            </Array>
          </mxGeometry>
        </mxCell>
        <mxCell id="LwdN2rzJdJDRxwPpojT3-54" value="" style="endArrow=none;html=1;rounded=0;exitX=1;exitY=0.5;exitDx=0;exitDy=0;entryX=0;entryY=0.5;entryDx=0;entryDy=0;" edge="1" parent="t-heXbu7Nx1hkAENzGRH-1" source="GQxk08SNRr1d7-7JqX8W-42" target="t-heXbu7Nx1hkAENzGRH-41">
          <mxGeometry relative="1" as="geometry">
            <mxPoint x="870" y="180" as="sourcePoint" />
            <mxPoint x="1030" y="180" as="targetPoint" />
            <Array as="points">
              <mxPoint x="920" y="210" />
              <mxPoint x="920" y="65" />
            </Array>
          </mxGeometry>
        </mxCell>
      </root>
    </mxGraphModel>
  </diagram>
</mxfile>
